<?xml version="1.0" encoding="utf-8"?><svg viewBox="0 0 162 65" xmlns="http://www.w3.org/2000/svg" xmlns:xlink="http://www.w3.org/1999/xlink"><style>:root>svg{display:none}:root>svg:target{display:block}</style><svg viewBox="0 0 25 21" id="about_me--design" xmlns="http://www.w3.org/2000/svg"><path d="M23.387 0H1.613A1.615 1.615 0 000 1.613v13.71a1.615 1.615 0 001.613 1.613h8.311l-.537 1.612H8.065a.403.403 0 00-.404.404v.806H4.032a.403.403 0 100 .806h17.742a.403.403 0 000-.806H17.34v-.806a.403.403 0 00-.403-.404h-1.323l-.537-1.612h8.311A1.616 1.616 0 0025 15.323V1.613A1.615 1.615 0 0023.387 0zm-6.855 19.355v.403H8.468v-.403h8.064zm-6.295-.807l.538-1.612h3.45l.538 1.612h-4.526zm13.957-3.225a.807.807 0 01-.807.806H1.613a.807.807 0 01-.807-.806v-.807h23.387v.807zM6.837 10.08l-.152 3.629h-.47l-.15-3.63h.772zm-.717-.807l.27-1.613h.122l.27 1.613H6.12zm.33-2.42c-.436 0-.806-.553-.806-1.209 0-.414.423-1.015.806-1.439.345.383.807.996.807 1.44 0 .655-.37 1.209-.806 1.209zm4.389-.806l.047.096v.308H9.274v-.308l.048-.096h1.518zm-1.115-.806l.356-.711.356.71h-.712zm1.162 2.016v6.401c0 .017.001.034.004.05H9.27a.417.417 0 00.003-.05v-6.4h1.613zm3.63-1.613h1.209v.807h-.403a.403.403 0 100 .806h.403v.807h-1.21a.403.403 0 000 .806h1.21v.806h-.403a.403.403 0 100 .807h.403v.806h-1.21a.403.403 0 000 .807h1.21v1.613h-2.823V4.032h2.823v.807h-1.21a.403.403 0 000 .806zm4.838 4.839v3.175c0 .017.001.034.003.05h-1.62a.405.405 0 00.004-.05v-3.175h1.613zm-1.613-.807V9.37l.806-1.612.807 1.612v.308h-1.613zm6.451 4.033h-4.035a.425.425 0 00.003-.05V9.273a.41.41 0 00-.042-.18l-1.21-2.42a.404.404 0 00-.721 0l-1.21 2.42a.406.406 0 00-.043.18v4.385c0 .017.002.034.004.05h-.407V3.63a.403.403 0 00-.403-.403H12.5a.403.403 0 00-.403.403v10.08h-.407a.405.405 0 00.004-.05V6.05a.406.406 0 00-.043-.181l-1.21-2.42a.403.403 0 00-.721 0l-1.21 2.42a.407.407 0 00-.042.18v7.611a.42.42 0 00.003.05h-.978l.168-4.015v-.04a.407.407 0 00-.005-.042V9.61l-.373-2.239c.468-.353.782-.995.782-1.727 0-1.036-1.202-2.184-1.339-2.311a.404.404 0 00-.55 0C6.04 3.46 4.84 4.609 4.84 5.645c0 .732.313 1.374.781 1.727l-.373 2.239a.404.404 0 00-.005.043v.04l.168 4.016H.806V1.613a.807.807 0 01.807-.807h21.774a.807.807 0 01.806.807V13.71z"/><path d="M4.436 14.92h-2.42a.403.403 0 000 .806h2.42a.403.403 0 000-.807zM6.048 14.92h-.403a.403.403 0 000 .806h.403a.403.403 0 000-.807zM10.08 7.661a.403.403 0 00-.403.403V12.5a.403.403 0 00.807 0V8.064a.403.403 0 00-.403-.403zM18.548 10.887a.404.404 0 00-.403.403v1.21a.403.403 0 00.807 0v-1.21a.403.403 0 00-.404-.403zM2.016 2.42h3.226a.403.403 0 000-.807H2.016a.403.403 0 100 .806zM2.016 3.63h.807a.403.403 0 100-.807h-.807a.403.403 0 100 .806zM21.37 12.903h1.614a.404.404 0 000-.806H21.37a.403.403 0 000 .806zM22.58 11.694h.404a.403.403 0 100-.807h-.403a.404.404 0 000 .806z"/></svg><svg viewBox="0 0 14 25" id="about_me--mobile_dev" xmlns="http://www.w3.org/2000/svg"><path d="M11.719 0H1.563A1.565 1.565 0 000 1.563v21.093a1.565 1.565 0 001.563 1.563h10.156a1.565 1.565 0 001.562-1.563V1.563A1.564 1.564 0 0011.72 0zm-3.25.781l-.22.781H4.993l-.196-.78H8.47zM12.5 22.656a.783.783 0 01-.781.782H1.563a.783.783 0 01-.782-.782V1.563A.782.782 0 011.562.78h2.43l.317 1.267a.39.39 0 00.378.296h3.858a.39.39 0 00.376-.285L9.28.781h2.438a.782.782 0 01.781.781v21.094z"/><path d="M4.688 21.875H1.953a.39.39 0 000 .781h2.734a.39.39 0 100-.781zM6.25 21.875h-.39a.39.39 0 000 .781h.39a.39.39 0 100-.781zM8.013 9.821a.39.39 0 00-.535.134l-2.344 3.906a.39.39 0 10.67.402l2.343-3.906a.391.391 0 00-.134-.536zM9.29 9.912a.39.39 0 00-.61.488l1.367 1.71-1.368 1.708a.39.39 0 00.61.489l1.563-1.954a.391.391 0 000-.488L9.289 9.912zM3.992 14.307a.391.391 0 00.61-.489L3.235 12.11 4.602 10.4a.39.39 0 10-.61-.488l-1.563 1.953a.39.39 0 000 .489l1.563 1.953z"/></svg><svg viewBox="0 0 25 24" id="about_me--web_development" xmlns="http://www.w3.org/2000/svg"><path d="M0 0v20.52h8.024v1.468H6.557v1.465h11.885v-1.465h-1.466V20.52H25V0H0zm15.511 21.988H9.489V20.52h6.022v1.468zm8.024-2.932H1.465v-2.934h22.07v2.934zm0-4.399H1.465V1.465h22.07v13.192z"/><path d="M9.958 5.413L8.922 4.378 5.24 8.06l3.683 3.684 1.036-1.036L7.31 8.06l2.648-2.648zM16.078 4.378l-1.036 1.035 2.648 2.648-2.648 2.648 1.036 1.036L19.76 8.06l-3.683-3.683zM12.632 3.644l-1.7 8.55 1.436.285 1.7-8.55-1.436-.285z"/></svg><svg fill="none" viewBox="0 0 25 24" id="experience--courses" xmlns="http://www.w3.org/2000/svg"><path d="M2.93 14.954l-1.865-.411C.52 15.645 0 16.883 0 18.31c0 1.4.498 2.623 1.065 3.767l6.308-1.391v2.744l2.197-1.099 2.198 1.1v-2.744l6.258 1.391c.543-1.094 1.066-2.335 1.066-3.768 0-.247-.018-.493-.05-.733H25V0H2.93v14.954zm-1.03 5.44c-.19-.504-.435-1.304-.435-2.083 0-.78.245-1.58.436-2.084l5.472 1.207v1.753l-5.472 1.207zm8.403.667l-.733-.366-.732.366v-3.483h1.465v3.483zm6.888-.668l-5.423-1.205v-1.755l5.423-1.205c.19.504.436 1.304.436 2.082 0 .78-.245 1.58-.436 2.083zm6.344-18.928v14.648h-4.831c-.24-.734-.434-1.081-.678-1.571l-7.071 1.571h-2.77l-3.79-.836V1.465h19.14z" fill="#000"/><path d="M8.838 2.93h10.254v1.465H8.838V2.93zM5.86 8.79h16.21v1.464H5.86V8.789zM8.838 11.719h10.254v1.465H8.838v-1.465zM10.303 5.86h1.465v1.464h-1.465V5.86zM13.232 5.86h1.465v1.464h-1.465V5.86zM16.162 5.86h1.465v1.464h-1.465V5.86z" fill="#000"/></svg><svg fill="none" viewBox="0 0 25 25" id="experience--designer" xmlns="http://www.w3.org/2000/svg"><path d="M20.265 19.146l-.65.433 1.53 2.296H3.855l1.823-2.734h9.924v-.782H5.47a.39.39 0 00-.325.174L2.8 22.05a.393.393 0 00-.066.217v1.172a.781.781 0 00.782.78h17.968a.781.781 0 00.782-.78v-1.172a.393.393 0 00-.066-.217l-1.935-2.903zm-16.75 4.291v-.78h17.97v.78H3.514zM20.313.781H4.688a1.175 1.175 0 00-1.172 1.172V12.11a1.175 1.175 0 001.171 1.172h5.47v1.563H8.593a.39.39 0 00-.39.39v1.563a.39.39 0 00.39.39h7.812a.391.391 0 00.39-.39v-1.563a.39.39 0 00-.39-.39h-1.562V13.28h5.469a1.175 1.175 0 001.171-1.172V1.953A1.176 1.176 0 0020.312.781zm-4.297 14.844v.781H8.984v-.781h7.032zm-5.078-.781V13.28h3.124v1.563h-3.124zm9.765-2.735a.39.39 0 01-.39.391H4.688a.39.39 0 01-.391-.39v-1.172h16.406v1.171zm0-1.953H4.297V1.953a.39.39 0 01.39-.39h15.625a.39.39 0 01.391.39v8.203z" fill="#000"/><path d="M18.36 11.328h.78v.781h-.78v-.78zM8.984 9.375h1.563a.39.39 0 00.39-.39v-.391h3.126v.39a.39.39 0 00.39.391h1.563a.39.39 0 00.39-.39V7.421a.39.39 0 00-.39-.39h-.391V4.686h.39a.39.39 0 00.391-.39V2.734a.39.39 0 00-.39-.39h-1.563a.39.39 0 00-.39.39v.391h-3.126v-.39a.39.39 0 00-.39-.391H8.984a.39.39 0 00-.39.39v1.563a.39.39 0 00.39.39h.391v2.344h-.39a.39.39 0 00-.391.39v1.563a.39.39 0 00.39.391zm6.641-.781h-.781v-.781h.781v.78zm-.781-5.469h.781v.781h-.781v-.781zm-5.469 0h.781v.781h-.781v-.781zm.781 1.563h.39a.39.39 0 00.392-.391v-.39h3.124v.39a.39.39 0 00.391.39h.39v2.344h-.39a.39.39 0 00-.39.39v.391h-3.126v-.39a.39.39 0 00-.39-.39h-.39V4.686zm-.781 3.125h.781v.78h-.781v-.78zM8.984 20.313h5.47v.78h-5.47v-.78zM23.387 14.39l-1.106-1.105a.386.386 0 00-.277-.113.38.38 0 00-.274.113l-5.25 5.25a.384.384 0 00-.093.152l-.278.829a.395.395 0 00.094.398l-.55.555.55.55.555-.55a.386.386 0 00.398.093l.828-.277a.384.384 0 00.153-.094l5.25-5.25a.39.39 0 000-.55zm-5.735 5.184l-.511.168-.215-.21.172-.512 3.8-3.801.555.55-3.8 3.805zm4.352-4.355l-.55-.551.55-.555.555.555-.555.55z" fill="#000"/></svg><svg fill="none" viewBox="0 0 25 25" id="experience--developer" xmlns="http://www.w3.org/2000/svg"><path d="M22.5 3.75H11.25v.833H22.5V3.75zM18.333 5.417H11.25v.833h7.083v-.833zM18.333 7.083H11.25v.834h7.083v-.834zM22.5 2.083h-7.917v.834H22.5v-.834zM13.75 2.083h-.833v.834h.833v-.834zM12.917 16.667h-.834v.833h.834v-.833zM6.961 2.795l-.589-.59-.833.834a.417.417 0 000 .589l.833.833.59-.589-.54-.539.54-.538zM10.295 3.039l-.834-.834-.589.59.539.538-.539.54.59.588.833-.833a.417.417 0 000-.59zM7.938 1.951l-.834 2.5.79.264.834-2.5-.79-.264zM21.667 12.917V9.583h-.834v3.334H20V8.75h-.833v4.167h-.834v-2.084H17.5v2.084h-.833v-2.5h-.834v2.5H15V11.25h-.833v1.667h-.834v.833H22.5v-.833h-.833z" fill="#000"/><path d="M22.083 0H2.917a2.502 2.502 0 00-2.5 2.5V16.667a2.503 2.503 0 002.5 2.5h5.159L6.409 22.5H4.167a1.25 1.25 0 100 2.5h16.666a1.25 1.25 0 000-2.5h-2.242l-1.667-3.333h5.16a2.503 2.503 0 002.5-2.5V2.5a2.503 2.503 0 00-2.5-2.5zM1.25 5.862l.947 1.128c.08.094.196.149.32.149h1.275c.123 0 .24-.055.319-.149l.947-1.128.935.304.104 1.468c.008.123.07.236.17.308l1.032.75c.1.072.226.097.346.067l1.43-.355.579.795-.78 1.25a.416.416 0 00-.04.35l.394 1.213a.417.417 0 00.24.257l1.365.554v.983l-1.366.554a.414.414 0 00-.24.258L9.102 15h-2.4A3.923 3.923 0 001.25 9.884V5.862zm0 5.013A3.095 3.095 0 015.75 15h-4.5v-4.125zm19.583 12.458a.417.417 0 010 .834H4.167a.417.417 0 010-.834h16.666zM17.66 22.5H7.341l1.667-3.333h6.985l1.666 3.333zm6.091-5.833c0 .92-.746 1.666-1.667 1.666H2.917c-.92 0-1.667-.746-1.667-1.666v-.834h22.5v.834zm0-1.667H10.106l1.3-.527a.417.417 0 00.26-.386v-1.545a.417.417 0 00-.26-.387l-1.448-.585-.274-.844.826-1.325a.417.417 0 00-.017-.465l-.908-1.25a.417.417 0 00-.437-.16l-1.515.375-.716-.52-.11-1.554a.417.417 0 00-.287-.367l-1.469-.478a.42.42 0 00-.448.13L3.6 6.304h-.888L1.708 5.111a.42.42 0 00-.448-.128l-.01.003V2.5c0-.92.746-1.667 1.667-1.667h19.166c.92 0 1.667.747 1.667 1.667V15z" fill="#000"/></svg><svg fill="none" viewBox="0 0 21 25" id="experience--university" xmlns="http://www.w3.org/2000/svg"><path d="M17.717 16.333l-1.467-.43-3.193-2.086v-.478a4.248 4.248 0 001.677-2.984.976.976 0 00.819-.961V8.08 6.401a.722.722 0 00.301-.59V4.29l2.203-.376a.77.77 0 00.648-.715.77.77 0 00-.542-.799L10.736.037a.777.777 0 00-.474 0L2.836 2.399a.77.77 0 00-.543.799.771.771 0 00.3.565v1.991h-.019a.76.76 0 00-.758.759V7.5l-.49 2.874a.815.815 0 00.804.952h1.658a.815.815 0 00.803-.952L4.101 7.5v-.988a.76.76 0 00-.758-.759h-.018V3.98l1.82.31V5.81c0 .241.118.456.301.589l.001 1.68v1.314c0 .484.355.887.819.961a4.25 4.25 0 001.675 2.983v.48l-3.192 2.085-1.466.43a3.724 3.724 0 00-2.676 3.575V21a.366.366 0 00.732 0v-1.092c0-1.32.885-2.5 2.15-2.872l1.367-.401 5.457 3.243a.37.37 0 00.374 0l5.458-3.243 1.366.4a3.01 3.01 0 012.15 2.873v3.537c0 .454-.37.823-.823.823h-1.614v-1.579a.366.366 0 10-.732 0v1.579H4.507v-1.579a.366.366 0 10-.733 0v1.579H2.162a.824.824 0 01-.823-.823v-.734a.366.366 0 00-.732 0v.734c0 .857.697 1.555 1.555 1.555h16.676c.858 0 1.555-.698 1.555-1.555v-3.537a3.724 3.724 0 00-2.676-3.575zm-13.93-5.739H2.13a.083.083 0 01-.082-.096l.443-2.6h.935l.443 2.6a.083.083 0 01-.082.096zM3.37 6.513v.653h-.82v-.653c0-.015.01-.027.025-.027h.769c.014 0 .026.012.026.027zM9.19 18.22l.146.224-3.739-2.221 2.373-1.55a7.692 7.692 0 001.22 3.547zm-.002-1.58a9.414 9.414 0 002.624 0c-.166.41-.372.805-.616 1.18l-.696 1.07-.696-1.07a6.994 6.994 0 01-.616-1.18zm2.622 1.58a7.69 7.69 0 001.22-3.547l2.373 1.55-3.739 2.221.146-.224zm2.142-11.684h.868v1.177h-.431a.438.438 0 01-.437-.437v-.74zM3.058 3.097L10.485.735a.048.048 0 01.029 0l7.427 2.362c.015.005.036.012.034.05-.003.038-.025.042-.04.044l-2.456.418-.922-.114a.366.366 0 00-.09.727l.655.081v1.502H5.878V4.302l3.79-.469a6.783 6.783 0 011.663 0l1.434.178a.366.366 0 00.09-.727l-1.434-.177a7.513 7.513 0 00-1.843 0L5.52 3.61 3.064 3.19c-.016-.002-.037-.006-.04-.044-.003-.038.018-.045.034-.05zm3.121 4.617V6.537h.87v.74a.438.438 0 01-.438.437h-.432zm.806 2.453a.567.567 0 00-.564-.532.242.242 0 01-.242-.241v-.948h.432a1.17 1.17 0 001.17-1.17v-.739h5.438v.74c0 .644.525 1.17 1.17 1.17h.432v.947a.242.242 0 01-.242.241.567.567 0 00-.564.532 3.527 3.527 0 01-3.515 3.298 3.527 3.527 0 01-3.515-3.298zm3.515 4.03c.651 0 1.27-.149 1.825-.414v.232c0 .627-.084 1.244-.247 1.84-.995.19-2.12.197-3.156 0a6.978 6.978 0 01-.247-1.84l-.002-.023v-.209a4.228 4.228 0 001.827.414z" fill="#000"/></svg><svg viewBox="0 0 29 30" id="menu--close" xmlns="http://www.w3.org/2000/svg"><path d="M17.157 14.523L28.449 3.231a1.876 1.876 0 000-2.657 1.877 1.877 0 00-2.657 0L14.5 11.867 3.208.574a1.877 1.877 0 00-2.657 0 1.876 1.876 0 000 2.657l11.292 11.292L.551 25.816a1.876 1.876 0 000 2.656c.366.366.848.55 1.328.55.481 0 .962-.183 1.329-.55L14.5 17.18l11.292 11.292a1.874 1.874 0 002.657 0 1.876 1.876 0 000-2.657L17.157 14.524z"/></svg><svg fill="none" viewBox="0 0 46 65" id="skills--css3" xmlns="http://www.w3.org/2000/svg"><path d="M22.972 65L4.186 59.78 0 12.773h46l-4.19 46.998L22.971 65z" fill="#4353AD"/><path d="M38.222 56.78l3.58-40.162H23v44.386l15.222-4.225z" fill="#485FB5"/><path d="M23 49.023l-.025.007-6.414-1.734-.41-4.597h-5.78l.806 9.052 11.797 3.278.026-.008v-5.998zM8.56 22.383l.523 5.765H23v-5.765H8.56zM9.597 34.05l.516 5.765H23v-5.765H9.597z" fill="#EDEDED"/><path d="M27.565 0h6.975V2.54h-4.058v.508h4.058v5.84h-6.975V6.22h4.059v-.508h-4.058V0zm-8.37 0h6.975V2.54h-4.058v.508h4.058v5.84h-6.974V6.22h4.058v-.508h-4.059V0zm-8.37 0h6.976v2.92h-4.058v2.92H17.8v2.92h-6.975V0z" fill="#100F0D"/><path d="M36.366 34.051l1.04-11.668H22.98v5.765h8.115l-.524 5.903h-7.59v5.765h7.09l-.668 7.477-6.423 1.735v5.998l11.806-3.275.086-.974 1.354-15.178.14-1.548z" fill="#fff"/></svg><svg fill="none" viewBox="0 0 46 65" id="skills--html5" xmlns="http://www.w3.org/2000/svg"><path d="M4.166 59.78L0 12.773h45.775l-4.17 46.998L22.858 65 4.166 59.78z" fill="#E53D20"/><path d="M22.887 61.004l15.147-4.225 3.564-40.162h-18.71v44.387z" fill="#F15123"/><path d="M22.887 34.051h-7.583l-.523-5.903h8.106v-5.765H8.517l.138 1.546 1.409 15.887h12.823V34.05zM22.887 49.023l-.025.007-6.382-1.734-.408-4.598h-5.753l.803 9.052 11.739 3.279.026-.008v-5.998z" fill="#EDEDED"/><path d="M4.259 0H7.17v2.895h2.664V0h2.912v8.765H9.835V5.83H7.171v2.935H4.26V0zM16.577 2.907h-2.564V0h8.041v2.907H19.49v5.858h-2.912V2.907zM23.33 0h3.037l1.868 3.08L30.1 0h3.038v8.765h-2.9V4.421l-2.004 3.116h-.05L26.18 4.421v4.344h-2.85V0zM34.588 0h2.913v5.868h4.095v2.897h-7.008V0z" fill="#100F0D"/><path d="M22.867 34.051v5.765h7.057l-.665 7.477-6.392 1.735v5.998l11.748-3.276.086-.974L36.048 35.6l.14-1.548h-13.32zM22.867 22.383v5.765H36.71l.115-1.296.261-2.923.137-1.546H22.867z" fill="#fff"/></svg><svg fill="none" viewBox="0 0 162 37" id="skills--jquery" xmlns="http://www.w3.org/2000/svg"><path fill-rule="evenodd" clip-rule="evenodd" d="M154.373 2.707l6.766.037s-12.579 17.045-13.606 18.434c-.334.45-.841.935-1.098 1.536-.649 1.512-1.316 4.828-1.316 4.828l-6.191.031s.963-3.456.924-5.298c-.035-1.608-.856-3.214-1.317-4.828-.465-1.632-1.097-4.828-1.097-4.828h6.364l.878 3.512 9.693-13.424z" fill="#1A1918"/><path fill-rule="evenodd" clip-rule="evenodd" d="M141.561 6.301c1.249.753 2.015 4.905 2.015 4.905s-6.533.096-10.089.096h-3.072l-3.731 16.24h-5.705s3.55-17.648 4.389-20.848c.272-1.036 1.861-.858 4.544-.858h4.286c2.768 0 6.003-.353 7.363.465zM114.998 14.21s.178-1.042-.603-2.249c-.667-1.03-1.284-1.268-3.039-1.323-4.958-.156-4.862 3.518-4.862 3.518l8.504.054zm5.377-4.206c.727 2.62-.658 8.778-.658 8.778s-7.232-.121-11.192 0c-1.232.037-2.706-.134-3.073.439-.516.803.188 2.039.786 2.56.687.602 2.025.67 2.506.732 3.215.408 9.944.105 9.944.105l-1.166 5.161s-9.509.477-14.265-.658c-.939-.224-1.819-.676-2.414-1.317-.162-.175-.303-.414-.456-.62-.123-.165-.48-.707-.64-1.136-1.087-2.894.126-8.44 1.316-11.411.138-.345.311-.781.494-1.152.228-.463.421-.985.603-1.262.123-.19.275-.314.402-.494.147-.213.318-.419.476-.603.439-.51.937-.87 1.536-1.317 1.982-1.483 5.568-2.636 9.876-2.194 1.621.166 4.071.746 5.267 2.414.32.445.478 1.33.658 1.975zM94.205 5.816l5.532-.033s-3.083 14.627-4.654 21.76h-6.365c-4.448 0-8.41.55-10.094-2.634-1.635-3.092-.075-8.177.658-11.631.518-2.445 1.609-7.442 1.609-7.442l5.732-.053s-1.62 7.78-2.294 11.664c-.241 1.392-.739 2.702-.22 3.731.495.979 1.186 1.049 3.293 1.097.667.016 2.853 0 2.853 0l3.95-16.459zM68.31 16.35c.578-2.059 1.423-4.29 1.316-6.145-.116-1.984-1.78-3.79-2.853-4.17-3.232-1.14-6.259.455-7.461 1.756-1.557 1.686-2.083 3.654-2.634 6.364-.41 2.013-.746 4.137 0 5.706 1.32 2.774 5.44 2.169 9.875 2.195.659-1.764 1.203-3.746 1.756-5.706zm7.68-8.12c.632 4.595-1.793 9.667-3.463 14.078 1.703.154 3.195-.024 3.303.103.112.165-1.141 5.265-1.578 5.278-1.352.035-5.83.073-7.699.073-6.094 0-11.795.397-14.703-2.634-1.18-1.23-1.997-3.342-2.195-4.828-.329-2.48.084-5.21.659-7.461.52-2.033 1.187-3.95 2.194-5.706C55.07 2.663 59.524-.656 66.992.11c1.449.15 3.53.784 4.828 1.536.09.053.404.303.477.347 1.755 1.117 3.355 3.784 3.693 6.237zM49.026 5.843c-.37 1.678-.738 3.581-1.126 5.24h-6.145c.476-1.839.84-3.667 1.317-5.267 1.966 0 3.794.027 5.954.027zM41.536 12.62h5.925c-.775 4.288-2.309 11.205-3.511 16.02-.753 3.013-1.256 5.212-3.292 6.803-.183.143-.288.075-.44.22-.375.357-2.11.772-3.072.877-1.562.17-3.329.022-5.249-.017.503-1.837 1.071-4.043 1.519-5.689 4.68.567 4.8-3.858 5.706-8.12.524-2.462 2.113-9.107 2.414-10.095z" fill="#1A1918"/><path fill-rule="evenodd" clip-rule="evenodd" d="M27.71 23.812l-.127.329c-2.164 4.213-5.998 6.798-11.467 6.912-2.556.053-4.992-.603-6.584-1.316-3.434-1.543-6.322-4.404-7.9-7.462-2.263-4.382-2.67-10.479 2.034-15.032.073 0-.57.987-.498.987l-.13.421c-3.39 10.615 7.056 19.712 17.21 18.672 2.44-.25 5.553-1.587 7.462-3.511z" fill="#21609B"/><path fill-rule="evenodd" clip-rule="evenodd" d="M21.565 19.422c2.555.018 5.223-1.176 6.803-2.852-1.382 3.509-5.385 5.764-10.753 5.047-4.494-.601-8.776-5.124-9.217-9.656-.323-3.298.827-5.267 2.721-7.655-.658 1.25-.904 2.212-.966 2.827-.72 7.134 5.7 12.252 11.412 12.29z" fill="#21609B"/><path fill-rule="evenodd" clip-rule="evenodd" d="M28.112 10.56c-.398.912-2.684 2.632-3.694 2.847-3.998.852-6.56-1.044-7.9-3.202-.2-.322-.569-1.202-.635-1.426-.52-1.769-.28-4.444 1.271-5.83-.467 1.318-.535 2.847-.29 3.841.15.602.604 1.651 1.058 2.311.827 1.203 1.352 1.495 2.414 2.134.479.287.992.518 1.214.581 1.007.296 3.133 1.078 6.562-1.255z" fill="#21609B"/></svg><svg fill="none" viewBox="0 0 65 65" id="skills--js" xmlns="http://www.w3.org/2000/svg"><path d="M0 0h65v65H0V0z" fill="#F7DF1E"/><path d="M17.09 54.319l4.975-3.01c.96 1.7 1.833 3.14 3.927 3.14 2.007 0 3.272-.785 3.272-3.839V29.841h6.109v20.856c0 6.326-3.709 9.206-9.12 9.206-4.886 0-7.722-2.53-9.162-5.585M38.69 53.664l4.974-2.88c1.31 2.139 3.011 3.71 6.021 3.71 2.532 0 4.145-1.266 4.145-3.011 0-2.095-1.657-2.837-4.45-4.058l-1.527-.655c-4.407-1.876-7.33-4.232-7.33-9.206 0-4.581 3.49-8.072 8.944-8.072 3.884 0 6.676 1.353 8.683 4.887l-4.756 3.054c-1.047-1.876-2.181-2.618-3.926-2.618-1.79 0-2.924 1.135-2.924 2.618 0 1.833 1.135 2.575 3.752 3.709l1.527.654c5.193 2.226 8.116 4.494 8.116 9.6 0 5.497-4.32 8.508-10.123 8.508-5.672 0-9.337-2.706-11.125-6.24" fill="#000"/></svg><svg fill="none" viewBox="0 0 160 45" id="skills--mongo.db" xmlns="http://www.w3.org/2000/svg"><path fill-rule="evenodd" clip-rule="evenodd" d="M148.973 18.573c-.144.029-.288.342-.288.512a337.539 337.539 0 00-.058 6.2c0 .058.086.171.173.171.432.029 1.471.057 2.365.057 1.24 0 1.961-.17 2.364-.34 1.038-.513 1.529-1.622 1.529-2.845 0-2.76-1.961-3.812-4.874-3.812a4.702 4.702 0 00-1.211.057zm7.44 12.714c0-2.815-2.105-4.38-5.912-4.38-.173 0-1.384-.028-1.672.029-.087.028-.202.085-.202.17 0 2.02-.029 5.234.058 6.485.057.54.461 1.309.951 1.536.519.285 1.702.341 2.509.341 2.278 0 4.268-1.251 4.268-4.18zM143.09 17.01c.288 0 1.153.085 3.374.085 2.105 0 3.778-.056 5.825-.056 2.509 0 5.97.881 5.97 4.579 0 1.82-1.298 3.27-3 3.982-.086.028-.086.085 0 .113 2.423.598 4.557 2.077 4.557 4.864 0 2.73-1.73 4.466-4.239 5.547-1.529.654-3.432.881-5.364.881-1.471 0-5.422-.17-7.613-.113-.231-.086.202-1.11.403-1.28.52-.029.923-.057 1.471-.228.779-.199.865-.426.981-1.593.057-.995.057-4.522.057-7.025 0-3.442.029-5.774 0-6.912-.028-.881-.346-1.166-.98-1.337a52.739 52.739 0 00-1.961-.284c-.144-.142.346-1.11.519-1.223zm-16.64 17.692c.693.54 2.048.767 3.259.767 1.557 0 3.115-.284 4.614-1.62 1.529-1.366 2.596-3.47 2.596-6.827 0-3.214-1.24-5.831-3.778-7.367-1.442-.882-3.288-1.251-5.422-1.251-.634 0-1.24.028-1.615.199-.086.057-.288.313-.288.455-.058.569-.058 4.949-.058 7.509 0 2.645 0 6.342.058 6.77 0 .426.202 1.08.634 1.365zm-6.546-17.692c.548 0 2.653.085 3.663.085 1.816 0 3.114-.085 6.546-.085 2.884 0 5.306.768 7.036 2.218 2.105 1.792 3.201 4.267 3.201 7.282 0 4.295-1.99 6.77-3.979 8.192-1.99 1.45-4.586 2.303-8.277 2.303-1.961 0-5.335-.057-8.132-.085h-.029c-.144-.256.231-1.251.461-1.28.75-.085.952-.114 1.327-.256.605-.227.721-.54.808-1.593.086-1.962.057-4.323.057-6.997 0-1.905.029-5.631-.029-6.826-.086-.995-.519-1.251-1.384-1.422-.433-.085-1.009-.2-1.817-.284-.115-.2.404-1.081.548-1.252z" fill="#8E714E"/><path fill-rule="evenodd" clip-rule="evenodd" d="M85.01 35.81c-.72-.086-1.24-.2-1.874-.484-.087-.057-.231-.341-.231-.455-.058-.995-.058-3.84-.058-5.745 0-1.536-.26-2.873-.922-3.812-.78-1.08-1.904-1.706-3.346-1.706-1.269 0-2.97.853-4.383 2.048-.029.028-.26.227-.23-.086 0-.313.057-.938.086-1.365.029-.398-.202-.597-.202-.597-.923.455-3.518 1.052-4.47 1.137-.692.143-.865.797-.144 1.024h.029c.778.228 1.297.484 1.701.74.288.227.26.54.26.796.028 2.134.028 5.404-.058 7.197-.029.71-.23.966-.75 1.08l.058-.028c-.404.085-.721.17-1.212.227-.172.17-.172 1.081 0 1.28.318 0 1.99-.085 3.375-.085 1.903 0 2.884.085 3.374.085.202-.227.26-1.08.144-1.28-.548-.028-.952-.085-1.326-.199-.52-.114-.664-.37-.693-.967-.057-1.507-.057-4.693-.057-6.855 0-.597.173-.882.346-1.052.663-.569 1.73-.967 2.681-.967.923 0 1.529.284 1.99.654.635.512.837 1.252.923 1.792.144 1.223.087 3.64.087 5.745 0 1.138-.087 1.423-.52 1.565-.201.085-.72.2-1.326.256-.202.199-.144 1.08 0 1.28.836 0 1.817-.086 3.259-.086 1.788 0 2.941.086 3.403.086.144-.17.201-.996.086-1.223zM93 24.945c-1.529 0-2.48 1.166-2.48 2.986 0 1.849.835 3.982 3.2 3.982.404 0 1.154-.17 1.5-.569.548-.512.923-1.536.923-2.617 0-2.36-1.183-3.782-3.143-3.782zm-.203 12.571c-.576 0-.98.17-1.24.313-1.21.768-1.759 1.508-1.759 2.39 0 .824.317 1.478 1.01 2.047.836.711 1.99 1.053 3.46 1.053 2.942 0 4.24-1.565 4.24-3.1 0-1.081-.549-1.793-1.673-2.19-.808-.342-2.278-.513-4.038-.513zM93 44.911c-1.76 0-3.029-.37-4.124-1.194-1.067-.797-1.529-1.991-1.529-2.816 0-.227.058-.853.577-1.422.317-.341 1.01-.996 2.653-2.105.058-.028.086-.057.086-.114s-.057-.114-.115-.142c-1.355-.512-1.759-1.337-1.874-1.792v-.057c-.03-.17-.087-.34.173-.512.202-.142.49-.313.807-.511.49-.285 1.01-.598 1.327-.854.057-.057.057-.114.057-.17 0-.058-.057-.114-.115-.143-2.019-.654-3.028-2.133-3.028-4.352 0-1.45.663-2.759 1.846-3.583.807-.626 2.826-1.394 4.152-1.394h.087c1.355.028 2.105.313 3.172.683.577.199 1.125.284 1.875.284 1.124 0 1.614-.341 2.018-.74.029.057.087.2.116.57.028.37-.087.91-.376 1.308-.23.313-.749.54-1.268.54h-.145a6.518 6.518 0 01-.75-.114l-.115.057c-.028.057 0 .114.03.2l.028.056c.058.256.173 1.024.173 1.223 0 2.333-.951 3.356-1.96 4.124a6.693 6.693 0 01-3.375 1.28c-.029 0-.144 0-.403.029-.145 0-.347.028-.376.028h-.028c-.231.057-.808.342-.808.825 0 .427.26.939 1.5 1.024.26.029.519.029.807.057 1.644.114 3.692.256 4.643.569 1.327.483 2.163 1.65 2.163 3.043 0 2.105-1.529 4.068-4.066 5.29-1.24.541-2.48.825-3.835.825zm16.437-19.824c-.606 0-1.154.142-1.557.426-1.125.683-1.702 2.048-1.702 4.04 0 3.725 1.904 6.342 4.614 6.342.808 0 1.442-.227 1.99-.682.836-.683 1.269-2.049 1.269-3.954 0-3.698-1.874-6.172-4.614-6.172zm.519 12.173c-4.902 0-6.661-3.555-6.661-6.883 0-2.332.951-4.124 2.854-5.404 1.356-.825 2.971-1.28 4.413-1.28 3.748 0 6.373 2.645 6.373 6.457 0 2.588-1.038 4.636-3.028 5.887-.952.626-2.595 1.223-3.951 1.223zm-51.39-12.173c-.605 0-1.153.142-1.557.426-1.124.683-1.701 2.048-1.701 4.04 0 3.725 1.903 6.342 4.614 6.342.808 0 1.442-.227 1.99-.682.836-.683 1.269-2.049 1.269-3.954 0-3.698-1.846-6.172-4.614-6.172zm.52 12.173c-4.903 0-6.662-3.555-6.662-6.883 0-2.332.952-4.124 2.855-5.404 1.356-.825 2.97-1.28 4.412-1.28 3.75 0 6.374 2.645 6.374 6.457 0 2.588-1.039 4.636-3.028 5.887-.923.626-2.567 1.223-3.951 1.223zm-32.962-.284c-.058-.085-.115-.341-.087-.654 0-.228.058-.37.087-.427.605-.085.923-.17 1.269-.256.577-.142.807-.455.836-1.166.087-1.707.087-4.95.058-7.196v-.057c0-.256 0-.569-.317-.796a6.545 6.545 0 00-1.73-.74c-.26-.085-.433-.228-.404-.398 0-.17.173-.37.548-.427.951-.085 3.431-.682 4.412-1.109.057.057.144.228.144.455l-.029.313c-.029.313-.058.683-.058 1.052 0 .114.116.2.231.2a.414.414 0 00.173-.058c1.846-1.422 3.518-1.934 4.383-1.934 1.414 0 2.51.655 3.346 2.02.057.085.115.114.202.114.057 0 .144-.029.173-.086 1.701-1.28 3.403-2.048 4.527-2.048 2.682 0 4.268 1.963 4.268 5.29 0 .94 0 2.162-.029 3.272 0 .995-.028 1.905-.028 2.56 0 .142.201.597.519.682.403.2.951.285 1.672.398h.03c.057.2-.059.939-.174 1.081-.173 0-.433 0-.72-.028a43.13 43.13 0 00-2.192-.057c-1.788 0-2.711.028-3.605.085-.058-.227-.087-.91 0-1.08.519-.086.778-.171 1.096-.257.576-.17.72-.426.75-1.166 0-.54.115-5.148-.058-6.257-.173-1.138-1.039-2.475-2.942-2.475-.72 0-1.845.285-2.941 1.11a.502.502 0 00-.116.284v.028c.116.598.116 1.28.116 2.333v1.848c0 1.28-.03 2.475 0 3.385 0 .626.375.768.692.882.173.028.288.057.432.085.26.057.52.114.923.2.058.113.058.483-.029.796-.029.17-.086.256-.115.284-.98-.028-1.99-.057-3.46-.057-.433 0-1.183.029-1.818.029-.519 0-1.009.028-1.297.028-.029-.057-.087-.256-.087-.569 0-.256.058-.455.116-.512.144-.028.26-.056.404-.056.345-.057.634-.114.922-.171.49-.142.663-.398.692-1.024.087-1.422.173-5.49-.029-6.514-.345-1.65-1.297-2.474-2.826-2.474-.893 0-2.018.427-2.941 1.11-.144.113-.26.397-.26.653v1.679c0 2.047 0 4.607.03 5.717.028.34.143.74.807.881.144.029.375.086.663.114l.52.085c.057.171.028.854-.087 1.081-.289 0-.635-.028-1.039-.028a47.786 47.786 0 00-2.249-.057c-1.01 0-1.73.028-2.307.057-.404-.057-.721-.057-1.067-.057z" fill="#442D22"/><path fill-rule="evenodd" clip-rule="evenodd" d="M10.954 43.802l-1.182-.398s.144-5.945-2.019-6.371c-1.442-1.65.231-69.97 5.422-.228 0 0-1.788.882-2.105 2.39-.347 1.479-.116 4.607-.116 4.607z" fill="#fff"/><path fill-rule="evenodd" clip-rule="evenodd" d="M10.954 43.802l-1.182-.398s.144-5.945-2.019-6.371c-1.442-1.65.231-69.97 5.422-.228 0 0-1.788.882-2.105 2.39-.347 1.479-.116 4.607-.116 4.607z" fill="#A6A385"/><path fill-rule="evenodd" clip-rule="evenodd" d="M11.589 38.057s10.353-6.713 7.93-20.679C17.183 7.224 11.675 3.897 11.07 2.617 10.407 1.707 9.773.114 9.773.114l.433 28.244c0 .028-.895 8.646 1.384 9.699z" fill="#fff"/><path fill-rule="evenodd" clip-rule="evenodd" d="M11.589 38.057s10.353-6.713 7.93-20.679C17.183 7.224 11.675 3.897 11.07 2.617 10.407 1.707 9.773.114 9.773.114l.433 28.244c0 .028-.895 8.646 1.384 9.699z" fill="#499D4A"/><path fill-rule="evenodd" clip-rule="evenodd" d="M9.166 38.426S-.552 31.884.025 20.366C.572 8.845 7.436 3.185 8.762 2.161c.866-.91.895-1.252.952-2.162.606 1.28.49 19.142.577 21.247.26 8.106-.462 15.644-1.125 17.18z" fill="#fff"/><path fill-rule="evenodd" clip-rule="evenodd" d="M9.166 38.426S-.552 31.884.025 20.366C.572 8.845 7.436 3.185 8.762 2.161c.866-.91.895-1.252.952-2.162.606 1.28.49 19.142.577 21.247.26 8.106-.462 15.644-1.125 17.18z" fill="#58AA50"/></svg><svg fill="none" viewBox="0 0 104 65" id="skills--node.js" xmlns="http://www.w3.org/2000/svg"><path d="M51.366 64.813c-.352 0-.68-.096-.986-.264l-3.122-1.89c-.47-.263-.235-.359-.094-.407.634-.215.751-.263 1.408-.645.07-.048.165-.024.235.023l2.395 1.46c.094.048.211.048.282 0l9.367-5.527c.093-.048.14-.143.14-.263V46.27c0-.119-.047-.215-.14-.263l-9.367-5.502c-.094-.048-.212-.048-.282 0l-9.367 5.502c-.094.048-.141.168-.141.264V57.3c0 .095.047.214.14.262l2.56 1.508c1.385.717 2.253-.12 2.253-.957V47.228c0-.144.118-.287.282-.287h1.197c.141 0 .282.12.282.287v10.886c0 1.89-1.01 2.99-2.77 2.99-.54 0-.963 0-2.16-.598l-2.465-1.435a2.026 2.026 0 01-.986-1.747v-11.03c0-.717.376-1.387.986-1.746l9.367-5.526a2.06 2.06 0 011.972 0l9.367 5.526c.61.359.986 1.029.986 1.747v11.029c0 .718-.375 1.388-.986 1.747l-9.367 5.526a2.366 2.366 0 01-.986.216zm2.888-7.585c-4.109 0-4.954-1.914-4.954-3.54 0-.144.118-.288.282-.288h1.22c.142 0 .259.096.259.24.188 1.268.728 1.89 3.216 1.89 1.972 0 2.817-.455 2.817-1.532 0-.622-.234-1.076-3.31-1.387-2.559-.263-4.155-.838-4.155-2.919 0-1.938 1.596-3.086 4.273-3.086 3.005 0 4.484 1.052 4.671 3.35a.39.39 0 01-.07.214c-.047.048-.117.096-.188.096h-1.22a.276.276 0 01-.259-.215c-.282-1.316-1.01-1.747-2.934-1.747-2.16 0-2.419.766-2.419 1.34 0 .694.306.91 3.217 1.292 2.887.383 4.249.933 4.249 2.99-.023 2.106-1.714 3.302-4.695 3.302z" fill="#539E43"/><path d="M22.302 21.676c0-.43-.234-.837-.61-1.053l-9.954-5.837a1.424 1.424 0 00-.54-.168h-.094c-.188 0-.375.072-.54.168L.61 20.623c-.375.216-.61.622-.61 1.053l.023 15.695c0 .215.118.43.306.526.187.12.422.12.587 0l5.916-3.445c.375-.215.61-.622.61-1.053v-7.345c0-.43.235-.837.61-1.052l2.512-1.484c.188-.12.4-.167.61-.167.212 0 .423.048.588.167l2.512 1.484c.375.215.61.622.61 1.052V33.4c0 .43.235.838.61 1.053l5.916 3.445c.188.12.423.12.61 0a.596.596 0 00.306-.526l-.024-15.695zM70.147.072a.635.635 0 00-.587 0 .626.626 0 00-.305.526V16.15c0 .144-.07.287-.211.383a.441.441 0 01-.423 0l-2.488-1.46a1.19 1.19 0 00-1.197 0l-9.955 5.862c-.375.216-.61.622-.61 1.053v11.7c0 .43.235.837.61 1.052l9.955 5.861a1.19 1.19 0 001.197 0l9.954-5.861c.375-.215.61-.622.61-1.053V4.522c0-.455-.235-.861-.61-1.077L70.147.072zm-.915 29.762c0 .12-.047.216-.141.264l-3.404 2.01a.342.342 0 01-.305 0l-3.405-2.01c-.093-.048-.14-.168-.14-.264v-4.019c0-.12.046-.215.14-.263l3.405-2.01a.342.342 0 01.305 0l3.404 2.01c.094.048.14.167.14.263v4.02zM103.272 25.72c.376-.216.587-.623.587-1.053v-2.848c0-.43-.235-.837-.587-1.052l-9.883-5.838a1.19 1.19 0 00-1.198 0l-9.954 5.862c-.375.215-.61.622-.61 1.052v11.7c0 .43.235.837.61 1.052l9.884 5.742c.376.216.822.216 1.174 0l5.986-3.397a.596.596 0 00.305-.526.596.596 0 00-.305-.527l-10-5.861a.626.626 0 01-.306-.527v-3.66c0-.215.118-.43.305-.526l3.123-1.819a.564.564 0 01.61 0l3.122 1.819c.188.12.306.31.306.526v2.87c0 .216.117.431.305.527.188.12.422.12.61 0l5.916-3.517z" fill="#333"/><path d="M92.638 25.169a.21.21 0 01.234 0l1.902 1.124c.07.048.117.12.117.216v2.249a.252.252 0 01-.117.215l-1.902 1.125a.21.21 0 01-.234 0l-1.902-1.125a.252.252 0 01-.118-.215v-2.25c0-.095.047-.167.118-.215l1.901-1.124z" fill="#539E43"/><mask id="na" maskUnits="userSpaceOnUse" x="27" y="14" width="23" height="27"><path d="M38.947 14.977a1.19 1.19 0 00-1.197 0l-9.884 5.814a1.2 1.2 0 00-.587 1.052v11.652c0 .43.235.837.587 1.053l9.884 5.813a1.19 1.19 0 001.197 0l9.884-5.813a1.2 1.2 0 00.587-1.053V21.843c0-.43-.235-.837-.587-1.052l-9.884-5.814z" fill="#fff"/></mask><g mask="url(#na)"><path d="M38.947 14.977a1.19 1.19 0 00-1.197 0l-9.884 5.814a1.2 1.2 0 00-.587 1.052v11.652c0 .43.235.837.587 1.053l9.884 5.813a1.19 1.19 0 001.197 0l9.884-5.813a1.2 1.2 0 00.587-1.053V21.843c0-.43-.235-.837-.587-1.052l-9.884-5.814z" fill="url(#npaint0_linear)"/><path d="M48.854 20.79l-9.93-5.814a1.613 1.613 0 00-.306-.12L27.491 34.285c.094.12.211.215.328.287l9.93 5.814c.283.167.611.215.916.12l10.447-19.476a1.236 1.236 0 00-.258-.239z" fill="url(#npaint1_linear)"/><path fill-rule="evenodd" clip-rule="evenodd" d="M48.878 34.548c.281-.168.493-.455.587-.766L38.572 14.834c-.282-.048-.587-.024-.846.143l-9.86 5.79 10.635 19.762c.141-.024.305-.072.446-.144l9.93-5.837z" fill="url(#npaint2_linear)"/><path fill-rule="evenodd" clip-rule="evenodd" d="M48.878 34.547l-9.907 5.814c-.141.072-.282.12-.446.144l.187.358L49.7 34.38v-.144l-.281-.478a1.111 1.111 0 01-.54.79z" fill="url(#npaint3_linear)"/><path fill-rule="evenodd" clip-rule="evenodd" d="M48.878 34.547l-9.907 5.814c-.141.072-.282.12-.446.144l.187.358L49.7 34.38v-.144l-.281-.478a1.111 1.111 0 01-.54.79z" fill="url(#npaint4_linear)"/></g><defs><linearGradient id="npaint0_linear" x1="42.375" y1="19.311" x2="31.247" y2="36.468" gradientUnits="userSpaceOnUse"><stop stop-color="#41873F"/><stop offset=".329" stop-color="#418B3D"/><stop offset=".635" stop-color="#419637"/><stop offset=".932" stop-color="#3FA92D"/><stop offset="1" stop-color="#3FAE2A"/></linearGradient><linearGradient id="npaint1_linear" x1="36.848" y1="29.033" x2="64.211" y2="14.445" gradientUnits="userSpaceOnUse"><stop offset=".138" stop-color="#41873F"/><stop offset=".403" stop-color="#54A044"/><stop offset=".714" stop-color="#66B848"/><stop offset=".908" stop-color="#6CC04A"/></linearGradient><linearGradient id="npaint2_linear" x1="26.919" y1="27.67" x2="49.788" y2="27.67" gradientUnits="userSpaceOnUse"><stop offset=".092" stop-color="#6CC04A"/><stop offset=".286" stop-color="#66B848"/><stop offset=".597" stop-color="#54A044"/><stop offset=".862" stop-color="#41873F"/></linearGradient><linearGradient id="npaint3_linear" x1="26.919" y1="37.33" x2="49.788" y2="37.33" gradientUnits="userSpaceOnUse"><stop offset=".092" stop-color="#6CC04A"/><stop offset=".286" stop-color="#66B848"/><stop offset=".597" stop-color="#54A044"/><stop offset=".862" stop-color="#41873F"/></linearGradient><linearGradient id="npaint4_linear" x1="53.12" y1="18.76" x2="47.111" y2="49.658" gradientUnits="userSpaceOnUse"><stop stop-color="#41873F"/><stop offset=".329" stop-color="#418B3D"/><stop offset=".635" stop-color="#419637"/><stop offset=".932" stop-color="#3FA92D"/><stop offset="1" stop-color="#3FAE2A"/></linearGradient></defs></svg><svg fill="none" viewBox="0 0 72 65" id="skills--react" xmlns="http://www.w3.org/2000/svg"><path d="M.212 32.43c0 5.43 5.277 10.499 13.597 13.356-1.662 8.404-.298 15.178 4.256 17.817 4.682 2.713 11.656.835 18.276-4.979 6.453 5.58 12.974 7.776 17.525 5.128 4.677-2.72 6.1-9.953 4.392-18.62 8.665-2.878 13.512-7.201 13.512-12.703 0-5.304-5.286-9.893-13.494-12.732 1.838-9.024.281-15.634-4.462-18.382-4.573-2.65-11.17-.34-17.718 5.385C29.285.623 22.752-1.233 18.014 1.524c-4.569 2.657-5.872 9.554-4.205 18.114C5.77 22.454.212 27.146.212 32.429z" fill="#fff"/><path d="M56.538 22.517a42.26 42.26 0 00-2.046-.648c.116-.474.222-.942.316-1.402 1.549-7.554.536-13.639-2.921-15.642-3.315-1.921-8.737.082-14.213 4.87-.526.46-1.055.948-1.582 1.46a38.762 38.762 0 00-1.053-.978c-5.74-5.12-11.492-7.278-14.946-5.269-3.312 1.927-4.293 7.647-2.899 14.806.135.691.292 1.397.47 2.115-.814.233-1.6.48-2.352.744-6.728 2.357-11.025 6.05-11.025 9.882 0 3.958 4.613 7.927 11.62 10.334.554.19 1.128.37 1.719.54a42.065 42.065 0 00-.5 2.28c-1.328 7.034-.29 12.62 3.013 14.534 3.412 1.977 9.138-.056 14.714-4.953.441-.387.883-.798 1.326-1.228a41.82 41.82 0 001.718 1.575c5.401 4.67 10.736 6.556 14.036 4.636 3.409-1.983 4.516-7.983 3.078-15.283a36.32 36.32 0 00-.381-1.707c.402-.12.797-.242 1.182-.37 7.285-2.426 12.025-6.347 12.025-10.358 0-3.845-4.435-7.564-11.299-9.938z" fill="#53C1DE"/><path d="M54.958 40.223c-.347.116-.704.227-1.067.336-.805-2.559-1.89-5.28-3.218-8.09 1.267-2.744 2.31-5.43 3.092-7.972.65.19 1.282.389 1.89.599 5.88 2.034 9.468 5.042 9.468 7.36 0 2.468-3.875 5.672-10.165 7.767zm-2.61 5.197c.636 3.228.727 6.146.305 8.428-.378 2.05-1.14 3.417-2.08 3.964-2.003 1.165-6.286-.35-10.905-4.343a38.989 38.989 0 01-1.598-1.464c1.79-1.968 3.58-4.256 5.327-6.797 3.072-.274 5.975-.721 8.607-1.333.13.526.245 1.041.344 1.545zM25.953 57.61c-1.957.695-3.515.715-4.457.17-2.005-1.163-2.838-5.647-1.702-11.663.13-.689.286-1.396.464-2.12 2.604.579 5.485.995 8.564 1.246 1.759 2.486 3.6 4.771 5.456 6.772-.406.394-.81.768-1.211 1.12-2.466 2.166-4.937 3.703-7.114 4.476zm-9.167-17.402c-3.099-1.064-5.658-2.448-7.412-3.957-1.576-1.356-2.372-2.703-2.372-3.796 0-2.325 3.45-5.29 9.204-7.307.698-.244 1.429-.475 2.187-.691.796 2.6 1.839 5.317 3.098 8.065-1.276 2.789-2.334 5.55-3.137 8.18-.54-.157-1.064-.321-1.568-.494zm3.073-21.018c-1.195-6.133-.402-10.76 1.594-11.92 2.127-1.238 6.828.526 11.783 4.947.317.282.635.578.954.884-1.847 1.992-3.671 4.26-5.414 6.732-2.989.278-5.85.726-8.48 1.324a40.032 40.032 0 01-.437-1.967zm27.412 6.802a86.833 86.833 0 00-1.932-3.194c2.028.258 3.97.6 5.795 1.018a58.466 58.466 0 01-2.034 5.499 95.415 95.415 0 00-1.829-3.323zM36.093 15.05a58.234 58.234 0 013.74 4.536 79.683 79.683 0 00-7.512-.002 60.088 60.088 0 013.772-4.534zm-11.25 10.96a80.628 80.628 0 00-1.795 3.302 60.45 60.45 0 01-2.02-5.526 60.906 60.906 0 015.762-.994 80.205 80.205 0 00-1.948 3.217zm2.005 16.301a57.53 57.53 0 01-5.857-.946 61.449 61.449 0 012.06-5.638 80.787 80.787 0 003.797 6.584zm9.32 7.74a61.166 61.166 0 01-3.824-4.598c1.217.048 2.457.073 3.718.073 1.296 0 2.576-.03 3.836-.086a57.96 57.96 0 01-3.73 4.611zM49.126 35.63a58.074 58.074 0 012.134 5.618 57.424 57.424 0 01-5.929 1.015c.66-1.05 1.311-2.134 1.951-3.25a86.848 86.848 0 001.844-3.383zm-4.195 2.021a89.484 89.484 0 01-3.05 4.943 81.372 81.372 0 01-5.819.205c-1.977 0-3.901-.062-5.754-.183a77.457 77.457 0 01-3.106-4.95 76.85 76.85 0 01-2.711-5.145 77.426 77.426 0 012.703-5.148 76.74 76.74 0 013.081-4.929 76.538 76.538 0 015.787-.218c1.968 0 3.908.075 5.798.22a82.282 82.282 0 013.062 4.912 89.64 89.64 0 012.74 5.124 82.333 82.333 0 01-2.731 5.169zm5.6-30.463c2.128 1.233 2.956 6.207 1.619 12.728-.086.416-.182.84-.286 1.27-2.637-.612-5.5-1.067-8.497-1.35-1.746-2.498-3.556-4.77-5.372-6.736.488-.472.976-.922 1.461-1.347 4.692-4.103 9.077-5.723 11.075-4.565z" fill="#fff"/><path d="M36.062 26.753c3.134 0 5.675 2.553 5.675 5.702 0 3.15-2.54 5.703-5.675 5.703-3.134 0-5.675-2.553-5.675-5.703 0-3.149 2.541-5.702 5.675-5.702z" fill="#53C1DE"/></svg><svg viewBox="0 0 20 20" id="social--facebook" xmlns="http://www.w3.org/2000/svg"><path d="M17.07 0H2.93A2.933 2.933 0 000 2.93v14.14A2.933 2.933 0 002.93 20h5.898v-7.07H6.484V9.414h2.344V7.031a3.52 3.52 0 013.515-3.515h3.555V7.03h-3.555v2.383h3.555l-.586 3.516h-2.969V20h4.727A2.933 2.933 0 0020 17.07V2.93A2.933 2.933 0 0017.07 0z"/></svg><svg viewBox="0 0 20 19" id="social--github" xmlns="http://www.w3.org/2000/svg"><path d="M10 0C4.475 0 0 4.362 0 9.741c0 4.305 2.865 7.955 6.838 9.242.5.092.683-.21.683-.468 0-.232-.008-.844-.013-1.657-2.781.588-3.368-1.306-3.368-1.306-.455-1.125-1.112-1.425-1.112-1.425-.906-.604.07-.592.07-.592 1.004.068 1.531 1.004 1.531 1.004.892 1.49 2.341 1.059 2.913.81.09-.63.347-1.059.633-1.302-2.22-.244-4.555-1.082-4.555-4.814 0-1.063.388-1.932 1.03-2.614-.113-.246-.45-1.236.087-2.578 0 0 .837-.26 2.75.999.8-.217 1.65-.324 2.5-.329.85.005 1.7.112 2.5.329 1.9-1.26 2.737-.999 2.737-.999.538 1.342.2 2.332.1 2.578a3.719 3.719 0 011.025 2.614c0 3.742-2.337 4.566-4.562 4.805.35.293.675.89.675 1.803 0 1.303-.013 2.35-.013 2.667 0 .256.175.56.688.463 4-1.279 6.863-4.932 6.863-9.23C20 4.361 15.523 0 10 0z"/></svg><svg viewBox="0 0 20 20" id="social--instagram" xmlns="http://www.w3.org/2000/svg"><path d="M13.75 0h-7.5A6.25 6.25 0 000 6.25v7.5A6.25 6.25 0 006.25 20h7.5A6.25 6.25 0 0020 13.75v-7.5A6.25 6.25 0 0013.75 0zm4.375 13.75a4.38 4.38 0 01-4.375 4.375h-7.5a4.38 4.38 0 01-4.375-4.375v-7.5A4.38 4.38 0 016.25 1.875h7.5a4.38 4.38 0 014.375 4.375v7.5z"/><path d="M10 5a5 5 0 100 10 5 5 0 000-10zm0 8.125A3.13 3.13 0 016.875 10 3.129 3.129 0 0110 6.875 3.129 3.129 0 0113.125 10 3.13 3.13 0 0110 13.125zM15.375 5.291a.666.666 0 100-1.332.666.666 0 000 1.332z"/></svg><svg viewBox="0 0 30 30" id="social--telegram" xmlns="http://www.w3.org/2000/svg"><path d="M15 30c8.286 0 15-6.714 15-15S23.286 0 15 0 0 6.714 0 15s6.714 15 15 15zM6.864 14.675l14.462-5.576c.671-.243 1.258.163 1.04 1.178h.002l-2.463 11.6c-.183.823-.671 1.023-1.355.636l-3.75-2.764-1.809 1.742c-.2.2-.368.369-.756.369l.266-3.816 6.95-6.279c.303-.266-.067-.416-.466-.151l-8.589 5.407-3.702-1.155c-.804-.255-.822-.803.17-1.191z"/></svg></svg>